<svg width="180" height="180" viewBox="0 0 180 180" xmlns="http://www.w3.org/2000/svg">
  <!-- White background -->
  <rect width="180" height="180" fill="#ffffff"/>
  
  <!-- Heart icon (coral color) -->
  <g transform="translate(90, 90)">
    <path d="M0 28l-11-10C-32 3-47-11-47-30c0-14 11.5-25 25-25 7.5 0 15 3 19.5 8 4.5-5 12-8 19.5-8 13.5 0 25 11 25 25 0 19-15 33-36 48L0 28z" 
          fill="#ff6b6b"/>
    
    <!-- Map pin icon (teal color) -->
    <g transform="translate(23, 23)">
      <path d="M0-18c5 0 9 4 9 9 0 7-9 18-9 18s-9-11-9-18c0-5 4-9 9-9z" 
            fill="#14b8a6"/>
      <circle cx="0" cy="-9" r="2.5" fill="#ffffff"/>
    </g>
  </g>
</svg>