<svg width="32" height="32" viewBox="0 0 32 32" xmlns="http://www.w3.org/2000/svg">
  <!-- White background -->
  <rect width="32" height="32" fill="#ffffff"/>
  
  <!-- Heart icon (coral color) -->
  <g transform="translate(16, 16)">
    <path d="M0 5l-2-2C-6 0.5-8-2-8-5c0-2.5 2-4.5 4.5-4.5 1.3 0 2.6 0.5 3.5 1.5 0.9-1 2.2-1.5 3.5-1.5 2.5 0 4.5 2 4.5 4.5 0 3-2 5.5-6 8.5L0 5z" 
          fill="#ff6b6b"/>
    
    <!-- Map pin icon (teal color) -->
    <g transform="translate(4, 4)">
      <path d="M0-3c1 0 1.8 0.8 1.8 1.8 0 1.4-1.8 3.6-1.8 3.6s-1.8-2.2-1.8-3.6c0-1 0.8-1.8 1.8-1.8z" 
            fill="#14b8a6"/>
      <circle cx="0" cy="-1.8" r="0.5" fill="#ffffff"/>
    </g>
  </g>
</svg>