<svg width="192" height="192" viewBox="0 0 192 192" xmlns="http://www.w3.org/2000/svg">
  <!-- White background -->
  <rect width="192" height="192" fill="#ffffff"/>
  
  <!-- Heart icon (coral color) -->
  <g transform="translate(96, 96)">
    <path d="M0 30l-12-11C-34 3.5-50-12.5-50-32c0-15 12.5-27 27-27 8 0 16 3.5 21 9 5-5.5 13-9 21-9 14.5 0 27 12 27 27 0 19.5-16 35.5-38 51L0 30z" 
          fill="#ff6b6b"/>
    
    <!-- Map pin icon (teal color) -->
    <g transform="translate(25, 25)">
      <path d="M0-20c5.5 0 10 4.5 10 10 0 7.5-10 20-10 20s-10-12.5-10-20c0-5.5 4.5-10 10-10z" 
            fill="#14b8a6"/>
      <circle cx="0" cy="-10" r="3" fill="#ffffff"/>
    </g>
  </g>
</svg>