<svg width="512" height="512" viewBox="0 0 512 512" xmlns="http://www.w3.org/2000/svg">
  <!-- White background -->
  <rect width="512" height="512" fill="#ffffff"/>
  
  <!-- Heart icon (coral color) -->
  <g transform="translate(256, 256)">
    <path d="M0 80l-32-30C-90 10-130-33-130-85c0-40 33-72 72-72 21 0 42 9 56 24 14-15 35-24 56-24 39 0 72 32 72 72 0 52-40 95-101 135L0 80z" 
          fill="#ff6b6b"/>
    
    <!-- Map pin icon (teal color) -->
    <g transform="translate(65, 65)">
      <path d="M0-50c14 0 25 11 25 25 0 19-25 50-25 50s-25-31-25-50c0-14 11-25 25-25z" 
            fill="#14b8a6"/>
      <circle cx="0" cy="-25" r="8" fill="#ffffff"/>
    </g>
  </g>
</svg>